<svg xmlns="http://www.w3.org/2000/svg" viewBox="0 0 512 512" style="enable-background:new 0 0 512 512"
     xml:space="preserve"><path fill="#fff" d="M231.5 49.1h-162C31.1 49.1 0 80.2 0 118.5v324C0 480.9 31.1 512 69.4 512h324c38.4 0 69.4-31.1 69.4-69.4v-162c0-12.8-10.4-23.1-23.1-23.1-12.8 0-23.1 10.4-23.1 23.1v162c0 12.8-10.4 23.1-23.1 23.1h-324c-12.8 0-23.1-10.4-23.1-23.1v-324c0-12.8 10.4-23.1 23.1-23.1h162c12.8 0 23.1-10.4 23.1-23.1 0-12.9-10.4-23.3-23.1-23.3z"/>
    <path fill="#fff" d="m405 37.5 16.4 16.4c5.1-5.1 11.6-7.6 18.3-7.6 6.7 0 13.2 2.5 18.4 7.6 5.1 5.1 7.6 11.6 7.6 18.4 0 6.7-2.5 13.2-7.6 18.3L242.8 305.9l-48.9 12.2 12.2-48.9L421.4 53.9 405 37.5l-16.4-16.4L168.8 241c-2.9 2.9-5.1 6.7-6.1 10.8l-23.1 92.6c-2 7.9.3 16.2 6.1 22 5.7 5.7 14.1 8.1 22 6.1l92.6-23.1c4-1 7.8-3.1 10.8-6.1L491 123.4c14.1-14 21.2-32.7 21.2-51.1s-7.1-37-21.1-51.1C476.8 7.1 458.2 0 439.8 0s-37 7.1-51.1 21.2L405 37.5z"/></svg>
